<?xml version="1.0" standalone="no"?>
<!DOCTYPE svg PUBLIC "-//W3C//DTD SVG 20010904//EN"
 "http://www.w3.org/TR/2001/REC-SVG-20010904/DTD/svg10.dtd">
<svg version="1.0" xmlns="http://www.w3.org/2000/svg"
 width="700.000000pt" height="700.000000pt" viewBox="0 0 700.000000 700.000000"
 preserveAspectRatio="xMidYMid meet">
<metadata>
Created by potrace 1.14, written by Peter Selinger 2001-2017
</metadata>
<g transform="translate(0.000000,700.000000) scale(0.100000,-0.100000)"
fill="#000000" stroke="none">
<path d="M2419 6647 c-19 -7 -46 -21 -59 -30 -25 -18 -79 -92 -81 -111 0 -6
-2 -20 -4 -31 -4 -18 -16 -104 -30 -215 -3 -19 -10 -69 -15 -110 -6 -41 -13
-93 -15 -115 -3 -22 -7 -51 -10 -65 -3 -14 -7 -48 -10 -76 -3 -28 -7 -61 -10
-73 -2 -13 -7 -49 -10 -80 -3 -31 -8 -67 -10 -81 -6 -37 -17 -111 -20 -140 -2
-14 -8 -62 -14 -107 -7 -46 -13 -95 -15 -110 -2 -16 -7 -52 -11 -82 -4 -30 -8
-61 -10 -70 -2 -9 -6 -44 -10 -76 -4 -33 -9 -67 -10 -75 -2 -8 -6 -40 -10 -70
-4 -30 -9 -63 -10 -72 -2 -9 -7 -48 -10 -85 -4 -37 -9 -70 -10 -73 -2 -3 -6
-33 -10 -65 -3 -33 -8 -71 -10 -85 -3 -14 -7 -47 -10 -75 -3 -27 -9 -63 -12
-80 -3 -16 -7 -41 -8 -55 -1 -14 -5 -47 -9 -75 -4 -27 -9 -68 -11 -90 -3 -22
-7 -51 -10 -65 -2 -14 -7 -49 -10 -79 -4 -30 -8 -61 -10 -70 -2 -9 -6 -44 -10
-76 -4 -33 -9 -69 -12 -80 -11 -55 -3 -128 18 -171 38 -79 96 -109 249 -129
148 -19 278 -37 300 -40 14 -2 111 -15 215 -29 230 -31 257 -35 365 -50 47 -7
103 -12 125 -12 l39 1 47 160 c186 628 223 747 249 803 35 76 124 165 195 198
133 60 224 63 390 14 124 -36 155 -44 155 -38 0 9 21 166 25 186 2 13 7 53 11
90 3 37 7 69 9 72 2 3 6 34 10 70 3 36 8 72 10 80 2 8 7 38 10 65 3 28 7 59 9
70 2 11 7 45 11 75 3 30 8 66 10 80 2 14 6 50 10 80 3 30 10 80 15 110 5 30
12 78 15 105 8 68 14 114 20 150 3 17 7 50 10 75 6 49 24 180 31 220 7 43 18
154 17 170 -9 125 -87 197 -233 214 -25 3 -92 12 -150 20 -58 8 -127 18 -155
21 -27 3 -61 8 -75 10 -14 3 -52 7 -85 11 -33 3 -67 7 -75 9 -35 6 -129 19
-215 30 -27 4 -61 8 -75 10 -14 2 -79 11 -145 19 -66 9 -149 21 -185 26 -36 5
-83 12 -105 14 -22 3 -92 12 -155 21 -63 9 -133 18 -155 20 -22 3 -50 7 -62 9
-69 14 -161 15 -194 3z m894 -482 c69 -12 74 -13 155 -35 221 -61 366 -167
443 -325 110 -228 40 -547 -159 -725 -58 -52 -104 -84 -288 -202 -175 -113
-248 -209 -249 -328 0 -36 4 -78 8 -93 4 -17 4 -26 -1 -23 -5 3 -69 15 -142
26 -73 11 -136 22 -139 24 -3 2 -29 6 -58 10 -92 11 -94 14 -89 140 7 189 120
362 322 492 190 122 257 183 294 267 59 133 10 267 -120 325 -121 54 -340 39
-507 -34 -17 -8 -34 -14 -37 -14 -4 0 -25 -12 -47 -26 -23 -14 -42 -24 -43
-22 -2 3 58 373 68 423 3 11 5 30 5 41 1 31 112 65 266 83 70 9 256 6 318 -4z
m-227 -1896 c103 -39 175 -134 180 -237 4 -107 -46 -197 -138 -247 -71 -39
-177 -44 -270 -13 -113 38 -198 152 -198 264 0 86 65 185 149 229 74 38 182
39 277 4z"/>
<path d="M3831 4330 c-79 -36 -113 -95 -165 -290 -8 -30 -51 -176 -96 -325
-45 -148 -88 -295 -97 -325 -8 -30 -30 -107 -50 -170 -37 -121 -71 -235 -184
-620 -39 -129 -90 -302 -115 -385 -25 -82 -46 -154 -48 -160 -8 -32 -44 -152
-93 -314 -62 -206 -67 -256 -34 -324 37 -77 79 -100 283 -157 l67 -18 0 53 c0
29 5 72 11 96 10 39 129 305 263 589 124 264 147 312 147 315 0 2 23 52 51
112 28 59 78 167 111 238 33 72 63 135 67 140 5 6 11 19 14 30 3 11 49 112
102 225 53 113 106 225 117 250 11 25 39 83 61 130 21 47 65 141 97 210 124
269 151 326 160 340 6 8 15 26 20 39 6 13 37 50 69 81 l58 56 -66 19 c-36 10
-93 26 -126 36 -352 107 -504 149 -539 149 -22 0 -61 -9 -85 -20z"/>
<path d="M1510 4150 c-118 -32 -232 -64 -253 -70 -49 -14 -123 -82 -136 -123
-23 -73 -19 -97 49 -355 103 -386 120 -450 141 -529 30 -113 57 -216 80 -300
11 -43 22 -85 24 -93 2 -8 20 -76 40 -150 35 -129 101 -378 110 -410 21 -81
47 -178 63 -240 12 -41 33 -120 47 -175 105 -396 149 -553 162 -578 17 -33 55
-70 94 -92 33 -18 114 -25 154 -13 31 9 357 96 388 104 9 2 25 6 35 9 9 2 44
12 77 20 51 14 75 21 140 39 6 1 25 6 43 10 37 9 38 10 13 37 -30 32 -68 120
-81 186 -18 91 -9 158 48 348 29 94 76 253 106 355 30 102 109 368 175 592 67
224 121 409 121 411 0 3 -24 8 -52 12 -29 4 -64 8 -78 10 -14 2 -50 7 -80 10
-30 3 -82 10 -115 15 -62 10 -93 14 -180 25 -27 3 -61 8 -75 10 -14 3 -47 7
-75 11 -27 3 -61 7 -75 9 -14 2 -45 6 -70 10 -25 3 -61 8 -80 10 -19 3 -53 8
-75 10 -22 3 -80 12 -129 20 -193 33 -320 143 -381 330 -14 43 -16 130 -5 213
6 48 13 103 16 122 2 19 7 53 9 75 3 22 8 60 11 85 3 25 8 57 10 73 2 15 3 27
2 26 -2 0 -100 -27 -218 -59z"/>
<path d="M4800 3955 c-67 -39 -71 -45 -180 -280 -76 -166 -223 -480 -260 -560
-41 -89 -72 -154 -129 -277 -24 -54 -166 -359 -269 -578 -65 -140 -106 -228
-132 -285 -15 -33 -47 -100 -70 -150 -23 -49 -53 -115 -67 -145 -14 -30 -41
-89 -61 -130 -88 -186 -101 -223 -98 -275 3 -53 24 -103 60 -141 18 -20 109
-67 326 -167 31 -14 96 -44 145 -67 50 -23 146 -68 215 -100 169 -78 271 -126
355 -165 76 -36 180 -84 290 -135 69 -32 121 -56 300 -141 75 -35 100 -43 150
-43 71 0 131 27 168 76 20 26 127 240 127 253 0 2 32 69 70 150 39 81 70 149
70 151 0 2 29 65 65 139 36 75 65 138 65 139 0 2 23 53 51 112 28 60 93 199
144 309 51 110 112 241 135 290 23 50 54 115 67 145 14 30 48 102 75 160 46
96 69 147 73 160 1 3 27 58 58 124 31 65 57 120 57 121 0 2 29 65 65 140 35
75 69 154 75 175 19 70 -10 161 -67 212 -10 10 -64 38 -119 64 -54 25 -128 60
-164 77 -36 16 -103 48 -150 70 -47 22 -112 52 -145 67 -33 15 -94 43 -135 63
-187 87 -239 111 -295 137 -201 93 -477 221 -585 273 -85 41 -117 51 -170 54
-56 3 -71 0 -110 -22z"/>
<path d="M630 3506 c-252 -109 -288 -128 -321 -165 -41 -45 -61 -107 -53 -164
3 -30 73 -203 149 -371 12 -27 33 -76 90 -211 7 -16 19 -46 28 -65 8 -19 65
-152 127 -295 61 -143 118 -273 125 -290 8 -16 35 -79 60 -140 26 -60 55 -127
65 -150 10 -22 36 -83 58 -135 75 -179 391 -910 407 -939 21 -41 80 -87 130
-101 42 -12 111 -7 145 10 8 5 44 20 80 35 36 15 79 33 95 41 66 29 520 225
672 290 89 38 161 70 160 71 -1 1 -43 -9 -92 -23 -50 -14 -101 -27 -115 -30
-14 -2 -32 -7 -40 -10 -79 -28 -329 -84 -376 -84 -115 0 -229 48 -314 130 -73
71 -97 119 -144 292 -9 32 -22 82 -30 110 -8 29 -76 285 -151 568 -75 283
-152 571 -170 640 -19 69 -62 229 -95 355 -34 127 -68 255 -76 285 -9 30 -17
62 -19 70 -8 36 -105 393 -107 395 -2 2 -131 -52 -288 -119z"/>
</g>
</svg>
